<svg id="Layer_1" data-name="Layer 1" xmlns="http://www.w3.org/2000/svg" viewBox="0 0 1121.04 851.8"><defs><style>.cls-1{fill:#73efe6;stroke:#ffd433;stroke-miterlimit:10;opacity:0.3;isolation:isolate;}.cls-2{fill:#e6e6e6;}.cls-3{fill:#fff;}.cls-4{fill:#f2f2f2;}.cls-5{fill:#3f3d56;}.cls-6{fill:#2f2e41;}.cls-7,.cls-8{fill:#6c63ff;}.cls-8{font-size:23.47px;font-family:VerdanaPro-Black, Verdana Pro;font-weight:800;}</style></defs><title>ideal</title><path class="cls-1" d="M168.35,286.68c-105.89-100.11-12.21-276.37,130-244.5,85.22,19.11,181.45,29.16,271.81,12.93,127.64-23,251.12,12.15,339.6,50.63a143.71,143.71,0,0,1,76.8,182.79c-31.75,83.88-57.81,205-15.15,326.77C1026.11,771.21,923,820.1,858.61,835.35a142.64,142.64,0,0,1-76.25-3c-86.25-27.5-334.56-101.87-437.8-81.45-40.2,7.94-91.51-1.25-142.74-17.43-99.58-31.52-132.66-155.16-62.92-232.9,60.73-67.72,101.62-148.44,34.78-208.91C171.87,290,170.1,288.35,168.35,286.68Z"/><path class="cls-2" d="M538.13,713.5a8.91,8.91,0,0,1-4.37-1.15L281.52,569.73a8.9,8.9,0,0,1-3.37-12.11L476.83,206.2a8.89,8.89,0,0,1,12.11-3.36h0L741.19,345.45a8.91,8.91,0,0,1,3.37,12.12L545.88,709a8.93,8.93,0,0,1-7.75,4.52Z"/><rect class="cls-3" x="601.55" y="143.1" width="2.06" height="306.25" transform="translate(48.15 674.99) rotate(-60.52)"/><rect class="cls-3" x="583.31" y="175.38" width="2.06" height="306.25" transform="translate(10.79 675.5) rotate(-60.52)"/><rect class="cls-3" x="565.06" y="207.65" width="2.06" height="306.25" transform="translate(-26.57 676.01) rotate(-60.52)"/><rect class="cls-3" x="546.82" y="239.92" width="2.06" height="306.25" transform="translate(-63.93 676.51) rotate(-60.52)"/><rect class="cls-3" x="528.57" y="272.19" width="2.06" height="306.25" transform="translate(-101.29 677.02) rotate(-60.52)"/><rect class="cls-3" x="510.32" y="304.47" width="2.06" height="306.25" transform="translate(-138.65 677.53) rotate(-60.52)"/><rect class="cls-3" x="492.08" y="336.74" width="2.06" height="306.25" transform="translate(-176.01 678.03) rotate(-60.52)"/><rect class="cls-3" x="473.83" y="369.01" width="2.06" height="306.25" transform="translate(-213.37 678.54) rotate(-60.52)"/><rect class="cls-3" x="455.59" y="401.29" width="2.06" height="306.25" transform="translate(-250.73 679.04) rotate(-60.52)"/><rect class="cls-3" x="437.34" y="433.56" width="2.06" height="306.25" transform="translate(-288.09 679.55) rotate(-60.52)"/><rect class="cls-3" x="419.09" y="465.83" width="2.06" height="306.25" transform="translate(-325.45 680.06) rotate(-60.52)"/><path class="cls-4" d="M514.66,660.05a8.88,8.88,0,0,1-4.36-1.15L258.05,516.29a8.91,8.91,0,0,1-3.36-12.12L453.36,152.75a8.89,8.89,0,0,1,12.11-3.36h0L717.73,292a8.9,8.9,0,0,1,3.36,12.12L522.41,655.53a8.82,8.82,0,0,1-5.36,4.2A9.18,9.18,0,0,1,514.66,660.05Z"/><rect class="cls-3" x="578.09" y="89.65" width="2.06" height="306.25" transform="translate(82.76 627.42) rotate(-60.52)"/><rect class="cls-3" x="559.84" y="121.93" width="2.06" height="306.25" transform="translate(45.4 627.93) rotate(-60.52)"/><rect class="cls-3" x="541.6" y="154.2" width="2.06" height="306.25" transform="translate(8.04 628.43) rotate(-60.52)"/><rect class="cls-3" x="523.35" y="186.47" width="2.06" height="306.25" transform="translate(-29.32 628.94) rotate(-60.52)"/><rect class="cls-3" x="505.11" y="218.75" width="2.06" height="306.25" transform="translate(-66.68 629.45) rotate(-60.52)"/><rect class="cls-3" x="486.86" y="251.02" width="2.06" height="306.25" transform="translate(-104.04 629.95) rotate(-60.52)"/><rect class="cls-3" x="468.61" y="283.29" width="2.06" height="306.25" transform="translate(-141.4 630.46) rotate(-60.52)"/><rect class="cls-3" x="450.37" y="315.56" width="2.06" height="306.25" transform="translate(-178.76 630.97) rotate(-60.52)"/><rect class="cls-3" x="432.12" y="347.84" width="2.06" height="306.25" transform="translate(-216.12 631.47) rotate(-60.52)"/><rect class="cls-3" x="413.88" y="380.11" width="2.06" height="306.25" transform="translate(-253.48 631.98) rotate(-60.52)"/><rect class="cls-3" x="395.63" y="412.38" width="2.06" height="306.25" transform="translate(-290.84 632.49) rotate(-60.52)"/><path class="cls-5" d="M489.53,146.11H86.39V706.68H489.53a5.46,5.46,0,0,0,5.46-5.46V151.57A5.47,5.47,0,0,0,489.53,146.11ZM109.14,691.21a10,10,0,1,1,10-10,10,10,0,0,1-10,10Zm0-51a10,10,0,1,1,10-10,10,10,0,0,1-10,10Zm0-51a10,10,0,1,1,10-10,10,10,0,0,1-10,10Zm0-51a10,10,0,1,1,10-10,10,10,0,0,1-10,10Zm0-51a10,10,0,1,1,10-10h0a10,10,0,0,1-10,10Zm0-51a10,10,0,1,1,10-10h0a10,10,0,0,1-10,10Zm0-51a10,10,0,1,1,10-10h0a10,10,0,0,1-10,10Zm0-51a10,10,0,1,1,10-10h0a10,10,0,0,1-10,10Zm0-51a10,10,0,1,1,10-10h0a10,10,0,0,1-10,10Zm0-51a10,10,0,1,1,10-10,10,10,0,0,1-10,10Zm0-51a10,10,0,1,1,10-10h0a10,10,0,0,1-10,10Z"/><path class="cls-6" d="M86.39,177.05c-2.7,0-26.39-.12-26.39-4.55S83.69,168,86.39,168v1.82c-14,0-23,1.57-24.46,2.73,1.46,1.17,10.51,2.73,24.46,2.73s23-1.55,24.45-2.72c-.71-.5-3.6-1.55-11.36-2.22l.16-1.81c13.14,1.14,13.14,3.23,13.14,4C112.78,176.93,89.09,177.05,86.39,177.05Z"/><path class="cls-6" d="M86.39,227.1c-2.7,0-26.39-.12-26.39-4.55S83.69,218,86.39,218v1.82c-14,0-23,1.57-24.46,2.73,1.46,1.17,10.51,2.73,24.46,2.73s23-1.55,24.45-2.72c-.71-.5-3.6-1.54-11.36-2.22l.16-1.81c13.14,1.14,13.14,3.24,13.14,4C112.78,227,89.09,227.1,86.39,227.1Z"/><path class="cls-6" d="M86.39,278.07c-2.7,0-26.39-.13-26.39-4.55S83.69,269,86.39,269v1.82c-14,0-23,1.56-24.46,2.73,1.46,1.16,10.51,2.73,24.46,2.73s23-1.56,24.45-2.73c-.71-.5-3.6-1.54-11.36-2.21l.16-1.82c13.14,1.14,13.14,3.24,13.14,4C112.78,277.94,89.09,278.07,86.39,278.07Z"/><path class="cls-6" d="M86.39,329c-2.7,0-26.39-.13-26.39-4.55s23.69-4.55,26.39-4.55v1.82c-14,0-23,1.56-24.46,2.73,1.46,1.16,10.51,2.73,24.46,2.73s23-1.56,24.45-2.73c-.71-.5-3.6-1.54-11.36-2.21l.16-1.82c13.14,1.14,13.14,3.24,13.14,4C112.78,328.9,89.09,329,86.39,329Z"/><path class="cls-6" d="M86.39,380c-2.7,0-26.39-.13-26.39-4.55s23.69-4.55,26.39-4.55v1.82c-14,0-23,1.56-24.46,2.73,1.46,1.16,10.51,2.73,24.46,2.73s23-1.56,24.45-2.73c-.71-.5-3.6-1.54-11.36-2.21l.16-1.82c13.14,1.14,13.14,3.24,13.14,4C112.78,379.86,89.09,380,86.39,380Z"/><path class="cls-6" d="M86.39,431c-2.7,0-26.39-.13-26.39-4.55s23.69-4.55,26.39-4.55v1.82c-14,0-23,1.56-24.46,2.73,1.46,1.17,10.51,2.73,24.46,2.73s23-1.56,24.45-2.72c-.71-.5-3.6-1.55-11.36-2.22l.16-1.82c13.14,1.14,13.14,3.24,13.14,4C112.78,430.82,89.09,431,86.39,431Z"/><path class="cls-6" d="M86.39,481.91c-2.7,0-26.39-.13-26.39-4.55s23.69-4.55,26.39-4.55v1.82c-14,0-23,1.56-24.46,2.73,1.46,1.17,10.51,2.73,24.46,2.73s23-1.56,24.45-2.72c-.71-.5-3.6-1.55-11.36-2.22l.16-1.82c13.14,1.14,13.14,3.24,13.14,4C112.78,481.78,89.09,481.91,86.39,481.91Z"/><path class="cls-6" d="M86.39,532.87c-2.7,0-26.39-.13-26.39-4.55s23.69-4.55,26.39-4.55v1.82c-14,0-23,1.56-24.46,2.73,1.46,1.17,10.51,2.73,24.46,2.73s23-1.56,24.45-2.72c-.71-.5-3.6-1.55-11.36-2.22l.16-1.81c13.14,1.13,13.14,3.23,13.14,4C112.78,532.74,89.09,532.87,86.39,532.87Z"/><path class="cls-6" d="M86.39,583.83c-2.7,0-26.39-.13-26.39-4.55s23.69-4.55,26.39-4.55v1.82c-14,0-23,1.56-24.46,2.73,1.46,1.17,10.51,2.73,24.46,2.73s23-1.56,24.45-2.72c-.71-.5-3.6-1.55-11.36-2.22l.16-1.81c13.14,1.13,13.14,3.23,13.14,4C112.78,583.7,89.09,583.83,86.39,583.83Z"/><path class="cls-6" d="M86.39,634.79c-2.7,0-26.39-.13-26.39-4.55s23.69-4.55,26.39-4.55v1.82c-14,0-23,1.56-24.46,2.73,1.46,1.17,10.51,2.73,24.46,2.73s23-1.56,24.45-2.72c-.71-.5-3.6-1.55-11.36-2.22l.16-1.81c13.14,1.13,13.14,3.23,13.14,4C112.78,634.66,89.09,634.79,86.39,634.79Z"/><path class="cls-6" d="M86.39,685.75c-2.7,0-26.39-.13-26.39-4.55s23.69-4.55,26.39-4.55v1.82c-14,0-23,1.56-24.46,2.73,1.46,1.17,10.51,2.73,24.46,2.73s23-1.55,24.45-2.72c-.71-.5-3.6-1.55-11.36-2.22l.16-1.81c13.14,1.13,13.14,3.23,13.14,4C112.78,685.62,89.09,685.75,86.39,685.75Z"/><path class="cls-3" d="M407.17,360.42H207a5.92,5.92,0,0,1-5.92-5.91V276.25a5.93,5.93,0,0,1,5.92-5.92h200.2a5.92,5.92,0,0,1,5.91,5.92v78.26A5.92,5.92,0,0,1,407.17,360.42Z"/><path class="cls-7" d="M332.55,297.18h-51a4.55,4.55,0,1,1,0-9.1h51a4.55,4.55,0,1,1,0,9.1Z"/><path class="cls-7" d="M360.76,319.93H253.38a4.55,4.55,0,1,1,0-9.1H360.76a4.55,4.55,0,0,1,0,9.1Z"/><path class="cls-7" d="M360.76,342.68H253.38a4.55,4.55,0,1,1,0-9.1H360.76a4.55,4.55,0,0,1,0,9.1Z"/><text class="cls-8" transform="translate(133 445.53)">IDEAL ENGLISH SCHOOL</text></svg>