<svg xmlns="http://www.w3.org/2000/svg" viewBox="0 0 1137.68 859.71"><defs><style>.cls-1,.cls-5{fill:#007bff;}.cls-1,.cls-2{opacity:0.1;}.cls-1,.cls-2,.cls-4,.cls-7{isolation:isolate;}.cls-3{fill:#fdc2cc;}.cls-4{opacity:0.05;}.cls-6{fill:#a8a8a8;}.cls-7{opacity:0.2;}.cls-8{fill:#edc9b9;}.cls-9{fill:#ad7460;}.cls-10{fill:#c4b5b1;}.cls-11{fill:#5b300c;}.cls-12{fill:#bf7028;}.cls-13{fill:#fff;}.cls-14{fill:#e5540c;}.cls-15{fill:#c4c3c2;}.cls-16{fill:#a54317;}.cls-17{fill:#35230c;}.cls-18{fill:#843d1e;}.cls-19{fill:#5b1c00;}</style></defs><title>secondary-madrassa</title><g id="Layer_1" data-name="Layer 1"><path class="cls-1" d="M12.28,406.51c18,70.15,56.11,130.79,116.34,160.18,125.22,61.09,407.45,29.58,618.12-6.58,109-18.71,204.74-70.3,274.33-143Z"/><path class="cls-1" d="M1117.05,76.32H1001.46c-5.5,0-10-4.1-10-9.11s4.49-9.11,10-9.11h20c-5.5,0-10-4.1-10-9.11s4.49-9.1,10-9.1h-14.27c-5.5,0-10-4.1-10-9.11s4.49-9.11,10-9.11h60.33c-13.39-5.68-29-9.71-47.06-11.82C856-9.42,797.21,3.32,776.46,16.43a242,242,0,0,1-84.55,33.79c-101.5,19.09-291.32,42.06-463.37-7.36C143,18.31,79.48,59.86,41.38,129.17H1137.12c-1.43-20.16-5.71-38.78-13.57-55.07A10.5,10.5,0,0,1,1117.05,76.32Z"/><path class="cls-1" d="M2.47,260.09A423.86,423.86,0,0,0,7,382.48l1014.88,33.84a433,433,0,0,0,70.51-98ZM403.84,347.4h-20c5.49,0,10,4.1,10,9.11s-4.5,9.1-10,9.1H268.3c-5.49,0-10-4.09-10-9.1s4.5-9.11,10-9.11h20c-5.49,0-10-4.1-10-9.11s4.5-9.11,10-9.11H274c-5.49,0-10-4.09-10-9.1s4.5-9.11,10-9.11H389.6c5.5,0,10,4.1,10,9.11s-4.49,9.1-10,9.1h14.24c5.5,0,10,4.1,10,9.11S409.37,347.4,403.84,347.4Z"/><path class="cls-1" d="M1137.17,129.8l-1108,24.57C15.67,186,6.74,221.67,2.62,258.69H1117.75a398.76,398.76,0,0,0,16.1-66.49C1137.17,170.44,1138.5,149.4,1137.17,129.8ZM227.59,210.31h-20c5.49,0,10,4.1,10,9.11s-4.5,9.11-10,9.11H92c-5.49,0-10-4.1-10-9.11s4.5-9.11,10-9.11h20c-5.49,0-10-4.09-10-9.1s4.5-9.11,10-9.11H97.72c-5.49,0-10-4.1-10-9.11s4.5-9.11,10-9.11H213.31c5.5,0,10,4.1,10,9.11s-4.49,9.11-10,9.11h14.28c5.49,0,10,4.1,10,9.11S233.08,210.31,227.59,210.31Z"/><ellipse class="cls-1" cx="839.15" cy="803.58" rx="135.72" ry="11.14"/><ellipse class="cls-1" cx="294.22" cy="786.69" rx="135.72" ry="16.89"/><ellipse class="cls-1" cx="501.15" cy="702.14" rx="102.12" ry="16.89"/><path class="cls-2" d="M916,803.77c-4.11,5.43-28.28,3.13-32.4,1.44-2.51-1-2.32-5.77-1.64-10.64,2.6,1.22,7,2.23,14.37,1.55a40.54,40.54,0,0,1,5.17-.16,119.25,119.25,0,0,0,15.7-.32A7.9,7.9,0,0,1,916,803.77Z"/><path class="cls-2" d="M821.59,789.77a7.44,7.44,0,0,1-6.39,6.52c-8.93,1.33-30.44,4.73-35.87,7.32-6.91,3.29-34.2,1-35.52-2.3a5.22,5.22,0,0,1,.47-4,10.59,10.59,0,0,1,4.41-4.74c4.45,3,14.33,5.84,36.06,2.45,20.73-3.24,31-6.41,36-8.57h0A4.39,4.39,0,0,1,821.59,789.77Z"/><polygon class="cls-3" points="292.3 473.47 292.22 477.12 291.4 473.63 292.3 473.47"/><polygon class="cls-4" points="292.3 473.47 292.22 477.12 291.4 473.63 292.3 473.47"/><path class="cls-2" d="M265.61,757.49s-13.8,3.77-16.47-2.15"/><path class="cls-2" d="M353.22,754.66s-16,4.13-19.7-2.26"/><ellipse class="cls-1" cx="192.6" cy="716.06" rx="26.93" ry="4.55"/><ellipse class="cls-1" cx="86.51" cy="780.59" rx="26.93" ry="4.55"/><ellipse class="cls-5" cx="58.47" cy="722.86" rx="40.21" ry="6.8"/><path class="cls-5" d="M41.84,711.74A11.61,11.61,0,0,1,38,706c-.49-2.3.49-5.05,2.68-5.89,2.46-.94,5.09.76,7.08,2.48s4.28,3.69,6.89,3.33a10.49,10.49,0,0,1-3.24-9.82,4,4,0,0,1,.9-2c1.36-1.46,3.84-.83,5.48.32C63,698,64.44,705.1,64.46,711.46c.53-2.3.09-4.68.1-7s.66-5,2.64-6.22a8,8,0,0,1,4-1c2.34-.08,4.94.15,6.54,1.86,2,2.12,1.47,5.69-.26,8s-4.35,3.8-6.76,5.42a14.91,14.91,0,0,0-4.84,4.61,4.26,4.26,0,0,0-.36.82H50.91A40.75,40.75,0,0,1,41.84,711.74Z"/><ellipse class="cls-1" cx="1029.83" cy="754.12" rx="26.93" ry="4.55"/><path class="cls-6" d="M1035.19,801s15.36-.47,20-3.77,23.62-7.23,24.77-1.94,23.09,26.29,5.74,26.43-40.29-2.7-44.91-5.52S1035.19,801,1035.19,801Z"/><path class="cls-7" d="M1086,819.85c-17.34.14-40.29-2.7-44.91-5.52-3.52-2.14-4.92-9.83-5.39-13.38h-.51s1,12.39,5.59,15.2,27.57,5.66,44.91,5.52c5,0,6.74-1.82,6.64-4.46C1091.64,818.85,1089.73,819.85,1086,819.85Z"/></g><g id="Layer_4" data-name="Layer 4"><polygon class="cls-8" points="805.98 23.8 797.97 245.27 -2.26 388.58 -2.26 298.94 462.73 127.31 809.59 2.97 805.98 23.8"/><polyline class="cls-8" points="-2.26 445.92 599.73 417.09 796.37 288.53 781.15 532.43 753.96 585.15 -2.26 511.61 -2.26 445.92"/><polygon class="cls-9" points="-2.26 511.61 755.72 581.4 624.83 774.34 0.07 606.08 -2.26 511.61"/><polygon class="cls-10" points="796.37 15.02 755.72 551.19 615.75 768.42 1045.6 768.42 1040.32 151.47 809.59 -3.36 796.37 15.02"/><polygon class="cls-11" points="614.37 437.17 674.84 437.17 657.62 691.09 607.96 691.09 607.96 667.46 599.95 665.06 614.37 437.17"/></g><g id="Layer_2" data-name="Layer 2"><polygon class="cls-12" points="310.56 240.59 347.01 230.05 344.2 314.16 308.56 320.17 310.56 240.59"/><polygon class="cls-12" points="215.24 267.7 242.48 260.89 238.47 333.78 210.84 340.59 215.24 267.7"/><polygon class="cls-12" points="139.55 289.73 161.98 284.12 155.57 348.6 133.54 355.01 139.55 289.73"/><polygon class="cls-12" points="75.47 309.35 94.69 302.94 88.68 361.02 71.86 364.22 75.47 309.35"/><polygon class="cls-12" points="26.61 321.37 40.62 319.56 35.82 371.83 19 373.83 26.61 321.37"/><polygon class="cls-12" points="621.35 145.55 694.24 122.72 687.43 246.47 615.75 261.29 621.35 145.55"/><polygon class="cls-12" points="437.32 202.91 492.36 184.4 487.22 284.76 433.09 296.78 437.32 202.91"/><polygon class="cls-12" points="423.9 441.92 480.38 441.92 470.76 575.29 411.09 572.88 423.9 441.92"/><polygon class="cls-12" points="55.04 472.76 89.89 472.76 81.47 542.45 44.23 540.04 55.04 472.76"/><polygon class="cls-12" points="974.59 462.34 971.79 602.52 1008.64 597.71 1008.64 466.35 974.59 462.34"/><polygon class="cls-13" points="21 447.53 24.2 447.53 15.39 537.24 8.18 537.24 21 447.53"/><polygon class="cls-13" points="202.83 439.92 212.44 439.92 202.83 558.87 190.41 556.46 202.83 439.92"/><polygon class="cls-13" points="349.01 433.11 366.63 433.11 354.62 575.29 335.79 571.68 349.01 433.11"/><polygon class="cls-13" points="574.09 421.89 599.73 424.3 590.51 610.93 562.48 606.08 574.09 421.89"/><polygon class="cls-13" points="4.98 302.94 12.59 298.94 2.98 387.17 -2.26 387.17 4.98 302.94"/><polygon class="cls-13" points="109.51 268.1 117.92 264.64 109.51 367.02 100.7 367.02 109.51 268.1"/><polygon class="cls-13" points="178.8 240.59 193.16 237.66 185.98 352.21 173.19 355.01 178.8 240.59"/><polygon class="cls-13" points="267.31 215.63 284.53 212.03 271.71 340.59 261.3 340.59 267.31 215.63"/><polygon class="cls-13" points="382.65 177.59 401.88 172.78 392.26 320.17 366.63 322.57 382.65 177.59"/><polygon class="cls-13" points="536.85 122.72 565.68 114.71 558.87 289.33 527.23 292.13 536.85 122.72"/><path class="cls-14" d="M-2.26,284.12,745.11,0H901.3s88.91,8.18,96.52,16.59,37.36,62.47,42.51,76.89V192S901.3,38.21,814,15.78L433.09,150.35-2.26,302.94Z"/><polygon class="cls-15" points="24.2 447.53 48.13 447.53 36.17 537.24 15.39 537.24 24.2 447.53"/><polygon class="cls-15" points="104.55 443.52 128.03 443.52 117.92 545.25 94.69 545.25 104.55 443.52"/><polygon class="cls-15" points="213.64 439.92 241.28 439.92 229.56 555.96 202.83 558.87 213.64 439.92"/><polygon class="cls-15" points="366.63 433.11 386.36 436.84 379.75 575.29 354.62 575.29 366.63 433.11"/><polygon class="cls-16" points="16.19 534.93 8.18 607.93 29.81 615.74 36.17 537.24 16.19 534.93"/><polygon class="cls-14" points="8.14 534.93 -0.93 605.92 10.49 611.23 16.19 534.93 8.14 534.93"/><polygon class="cls-14" points="83.63 545.31 67.06 628.46 81.18 632.75 95.3 542.45 83.63 545.31"/><polygon class="cls-16" points="117.92 545.25 108.08 637.06 80.88 630.75 94.69 545.25 117.92 545.25"/><polygon class="cls-14" points="191.24 556.4 182.37 658.35 193.26 660.97 203.64 557.97 191.24 556.4"/><polygon class="cls-16" points="229.56 555.96 219.95 652.71 190.41 658.94 202.83 559.13 229.56 555.96"/><polygon class="cls-14" points="336.48 573.48 356.32 575.96 348.3 702.85 322.98 697.08 336.48 573.48"/><polygon class="cls-16" points="379.75 575.29 354.62 575.29 348.01 706.45 376.64 703.61 379.75 575.29"/><polygon class="cls-14" points="562.48 606.08 588.21 609.8 581.1 768.42 546.46 757.21 562.48 606.08"/><polygon class="cls-16" points="588.83 593.4 581.14 763.26 616.42 763.26 616.75 602.41 588.83 593.4"/><polygon class="cls-13" points="97.5 441.92 104.7 441.92 94.69 545.25 83.28 545.25 97.5 441.92"/><polygon class="cls-17" points="-10.85 590.97 653.79 776.76 546.11 775.91 -10.95 603.89 -10.85 590.97"/><polygon class="cls-15" points="621.55 406.67 629.36 406.67 616.06 609.8 588.21 609.8 597.82 413.58 621.55 406.67"/><polygon class="cls-14" points="-2.26 385.76 884.08 227.65 600.82 423.19 -2.26 447.53 -2.26 385.76"/></g><g id="Layer_3" data-name="Layer 3"><polygon class="cls-11" points="892.09 142.74 927.74 155.96 922.93 312.56 884.08 306.15 892.09 142.74"/><polygon class="cls-11" points="293.74 445.52 337.8 443.52 322.98 617.34 277.72 614.93 293.74 445.52"/><polygon class="cls-18" points="970.59 149.55 970.59 324.57 1026.26 340.99 1023.86 186 970.59 149.55"/><polygon class="cls-19" points="976.8 335.58 867.07 651.18 855.45 651.18 966.79 330.78 976.8 335.58"/><polygon class="cls-18" points="883.32 319.56 734.29 627.76 855.83 652.18 970.59 338.17 969.39 319.56 883.32 319.56"/><polygon class="cls-18" points="717.74 628.12 712.46 654.22 848.16 690.71 853.04 662.17 717.74 628.12"/><polygon class="cls-18" points="694.73 666.71 824.86 705.56 817.71 732.62 686.58 691.65 694.73 666.71"/><polygon class="cls-18" points="670.81 711.94 802.98 747.19 797.77 765.22 665.61 733.97 670.81 711.94"/><polygon class="cls-18" points="656.18 740.78 778.34 776.43 775.93 796.05 646.57 762.81 656.18 740.78"/></g></svg>